<svg width="78" height="14" viewBox="0 0 78 14" fill="none" xmlns="http://www.w3.org/2000/svg">
<path fill-rule="evenodd" clip-rule="evenodd" d="M19.3641 2.03295C19.3641 1.3999 18.8865 0.886719 18.2974 0.886719H17.2307C16.6416 0.886719 16.1641 1.3999 16.1641 2.03295V11.9669C16.1641 12.5999 16.6416 13.1131 17.2307 13.1131H18.2974C18.8865 13.1131 19.3641 12.5999 19.3641 11.9669V2.03295ZM11.9299 3.332H12.9966C13.5857 3.332 14.0633 3.8575 14.0633 4.50574V11.9394C14.0633 12.5876 13.5857 13.1131 12.9966 13.1131H11.9299C11.3408 13.1131 10.8633 12.5876 10.8633 11.9394V4.50574C10.8633 3.8575 11.3408 3.332 11.9299 3.332ZM7.59818 5.98105H6.53151C5.94241 5.98105 5.46484 6.51324 5.46484 7.16973V11.9244C5.46484 12.5809 5.94241 13.1131 6.53151 13.1131H7.59818C8.18728 13.1131 8.66484 12.5809 8.66484 11.9244V7.16973C8.66484 6.51324 8.18728 5.98105 7.59818 5.98105ZM2.2974 8.42634H1.23073C0.641625 8.42634 0.164062 8.95093 0.164062 9.59804V11.9414C0.164062 12.5885 0.641625 13.1131 1.23073 13.1131H2.2974C2.8865 13.1131 3.36406 12.5885 3.36406 11.9414V9.59804C3.36406 8.95093 2.8865 8.42634 2.2974 8.42634Z" fill="black"/>
<path fill-rule="evenodd" clip-rule="evenodd" d="M34.9385 3.30222C37.4256 3.30232 39.8176 4.22441 41.6201 5.87789C41.7559 6.00554 41.9728 6.00393 42.1065 5.87428L43.404 4.61081C43.4717 4.54505 43.5094 4.45597 43.5089 4.36329C43.5083 4.27061 43.4695 4.18197 43.401 4.11697C38.67 -0.257741 31.2063 -0.257741 26.4752 4.11697C26.4067 4.18192 26.3678 4.27054 26.3672 4.36322C26.3666 4.4559 26.4042 4.545 26.4719 4.61081L27.7697 5.87428C27.9033 6.00413 28.1205 6.00574 28.2561 5.87789C30.0589 4.2243 32.4511 3.30221 34.9385 3.30222ZM34.9351 7.5225C36.2925 7.52241 37.6013 8.03415 38.6075 8.95828C38.7435 9.08943 38.9579 9.08659 39.0906 8.95187L40.3778 7.63256C40.4456 7.56336 40.4832 7.46948 40.4823 7.37193C40.4813 7.27438 40.4418 7.1813 40.3726 7.11351C37.3088 4.22266 32.5641 4.22266 29.5002 7.11351C29.431 7.1813 29.3915 7.27443 29.3906 7.37201C29.3897 7.46959 29.4275 7.56346 29.4954 7.63256L30.7823 8.95187C30.915 9.08659 31.1293 9.08943 31.2654 8.95828C32.2709 8.03476 33.5787 7.52307 34.9351 7.5225ZM37.4596 10.316C37.4615 10.4214 37.4244 10.523 37.3571 10.5968L35.1805 13.0515C35.1167 13.1236 35.0297 13.1642 34.9389 13.1642C34.8481 13.1642 34.7611 13.1236 34.6973 13.0515L32.5203 10.5968C32.453 10.5229 32.416 10.4213 32.418 10.316C32.42 10.2106 32.4608 10.1108 32.5308 10.0402C33.9209 8.72634 35.9569 8.72634 37.347 10.0402C37.4169 10.1109 37.4576 10.2107 37.4596 10.316Z" fill="black"/>
<path d="M76.5078 5.28113V9.3566C77.3125 9.01143 77.8359 8.20847 77.8359 7.31886C77.8359 6.42926 77.3125 5.6263 76.5078 5.28113Z" fill="black"/>
<path d="M52.5078 6.5C52.5078 5.09987 52.5078 4.3998 52.7803 3.86502C53.02 3.39462 53.4024 3.01217 53.8728 2.77248C54.4076 2.5 55.1077 2.5 56.5078 2.5H69.5078C70.9079 2.5 71.608 2.5 72.1428 2.77248C72.6132 3.01217 72.9956 3.39462 73.2353 3.86502C73.5078 4.3998 73.5078 5.09987 73.5078 6.5V7.5C73.5078 8.90013 73.5078 9.6002 73.2353 10.135C72.9956 10.6054 72.6132 10.9878 72.1428 11.2275C71.608 11.5 70.9079 11.5 69.5078 11.5H56.5078C55.1077 11.5 54.4076 11.5 53.8728 11.2275C53.4024 10.9878 53.02 10.6054 52.7803 10.135C52.5078 9.6002 52.5078 8.90013 52.5078 7.5V6.5Z" fill="black"/>
</svg>
